<?xml version="1.0" standalone="no"?>
<!DOCTYPE svg PUBLIC "-//W3C//DTD SVG 20010904//EN"
 "http://www.w3.org/TR/2001/REC-SVG-20010904/DTD/svg10.dtd">
<svg version="1.0" xmlns="http://www.w3.org/2000/svg"
 width="512.000000pt" height="512.000000pt" viewBox="0 0 512.000000 512.000000"
 preserveAspectRatio="xMidYMid meet">
<metadata>
Created by potrace 1.14, written by Peter Selinger 2001-2017
</metadata>
<g transform="translate(0.000000,512.000000) scale(0.100000,-0.100000)"
fill="#000000" stroke="none">
<path d="M117 5100 c-50 -25 -94 -75 -107 -121 -7 -24 -9 -850 -8 -2440 l3
-2404 22 -36 c13 -20 42 -49 65 -65 l41 -29 2421 0 c2352 0 2422 1 2459 19 21
10 52 39 70 65 l32 46 3 2400 c2 1824 0 2410 -9 2443 -15 54 -76 117 -126 131
-26 8 -795 11 -2433 11 -2335 -1 -2396 -1 -2433 -20z"/>
</g>
</svg>
